<svg xmlns="http://www.w3.org/2000/svg" width="1168.813" height="773.578" viewBox="0 0 1168.813 773.578">
    <defs>
        <style>
            .cls-2{fill:#96d9c9}.cls-3{fill:#3c8f7c}.cls-4{fill:#50bfa5}.cls-5{fill:#184655}.cls-6{fill:#86b1f2}.cls-7{fill:#fae0b2}.cls-8{fill:#355389}.cls-9{fill:#466eb6}.cls-11{fill:#f47458}.cls-12{fill:#b75742}.cls-13{fill:#13375b}.cls-14{fill:#f7a491}.cls-15{fill:#9bc1f9}.cls-16{fill:#f7cc7f}.cls-17{fill:#f48c7f}.cls-18{fill:#07345a}
        </style>
    </defs>
    <g id="Illustration" opacity="0.1" transform="translate(-812.649 -402.352)">
        <path id="Path_1173" d="M1893.747 764.633l14.2-13.739c-4.442-24.841-27.748-36.8-43.094-38.426-41.327-4.387-62.392 24.027-71.258 69.6-16.182 83.178 4.192 432.44 4.192 432.44 1.524-9.276 113.766-360.014 110.889-456.379z" class="cls-2" transform="translate(-383.241 -121.76)"/>
        <path id="Path_1174" d="M945.585 1246.784l-1.762 13.031-4.217-15.072c-11.853-3.734-22.15-5.013-30.309-3.158-72.92 16.572 53.089 116.857 53.089 116.857s-40.159-25.21-79.052-41.175l-.494 13.21-4.975-14.926c-30.221-11.83-58.259-17.3-63.862-.217-5.274 16.08 5.34 31.3 23.6 44.858l21 .737-12.376 5.189c42.181 27.019 111.959 46.344 136.045 50.741-23.041-3.619-79.368-10.95-112.75-3.745l5.238 8.717-13.182-6.59c-11.684 3.768-18.941 10.008-18.159 19.833 1.494 18.785 83 25.55 83 25.55l297.759-2.763 1.658.828s-184.259-176.742-280.251-211.905z" class="cls-3" transform="translate(0 -329.647)"/>
        <path id="Path_1175" d="M2259.248 1268.183c-5.745-26.667-64.056-34.505-138.384-19.887 26.466-9.044 62.827-29.629 81.657-39.037l-12.878-8.2 25.869 1.2c21.157-12.386 31.735-24.555 24.824-35.56-5.162-8.221-16.487-11.639-31.837-11.6l-8.085 14.467 1.678-14.266c-38.719 2.236-47.5-4.084-99.734 17.028 32.639-16.944 37.356-22.2 39.5-29l-17.678-7.734h20.715c16.744-18.013 43.31-53.648 32.292-70.072-9.093-13.553-49.01 5.259-74.489 15.033l-10.835 24.379 2.193-20.831c-81.007 35.288-53.549 6.976-53.549 6.976s84.562-174.931 34.746-171c-19.667 1.552-40.816 13.4-61.585 32.4l-.526 17.388-6.18-11.034c-15.129 14.828-30.109 32.79-44.409 52.068 19.39-40.722 34.1-80.723 35.557-110.5l-14.8-1.794 14.605-10.16c-1.375-15.047-7.335-26.427-19.41-32.442-18.521-9.227-37.959 4.734-57.1 32.477l4.724 25.04-11.871-14.03c-68.526 111.682-131.183 386.638-131.183 386.638l-4.971 14.912 201.32 9.941s291.425 11.062 279.824-42.8z" class="cls-4" transform="translate(-379.609 -177.259)"/>
        <g id="Group_20" transform="translate(822.422 1128.378)">
            <path id="Path_1176" d="M1984.328 1605.487H832.222a3.338 3.338 0 1 1 0-6.671h1152.106a3.338 3.338 0 1 1 0 6.671z" class="cls-5" transform="translate(-828.755 -1598.816)"/>
        </g>
        <path id="Path_1177" d="M1756 1364.777h-472.164c-18.035 0-32.655-13.264-32.655-29.627v-17.616c0-16.362 14.62-29.626 32.655-29.626H1756c-21.6 21.419-21.972 54.152-.867 75.972z" class="cls-6" transform="translate(-172.426 -348.192)"/>
        <path id="Path_1178" d="M1899.054 1302.423h-237.6a29.627 29.627 0 0 0-29.627 29.626 29.626 29.626 0 0 0 29.627 29.626h237.623a56.957 56.957 0 0 1-.023-59.252z" class="cls-7" transform="translate(-322.092 -353.899)"/>
        <g id="Group_21" transform="translate(1129.993 851.851)">
            <path id="Path_1179" d="M1767.942 1146.943c1.034-1.779-.537-3.834-2.928-3.834h-376.029c-29.473 0-53.365 19.716-53.365 44.04 0 24.321 23.892 44.038 53.365 44.038h376.133c2.4 0 3.976-2.07 2.932-3.854-14.89-25.456-14.85-55.048-.108-80.39z" class="cls-8" transform="translate(-1335.62 -1143.109)"/>
            <path id="Path_1180" d="M1857.789 1158.726h-252.295a33.745 33.745 0 0 0-33.744 33.745V1195a33.744 33.744 0 0 0 33.744 33.745h252.833a77.8 77.8 0 0 1-.538-70.019z" class="cls-7" transform="translate(-1428.464 -1149.25)"/>
        </g>
        <path id="Path_1181" d="M1293.911 1082.209h242.672c21.52 0 38.965-18.812 38.965-42.018s-17.445-42.018-38.965-42.018h-242.672c18.548 23.293 19.273 57.465 1.732 81.648z" class="cls-7" transform="translate(-189.227 -234.271)"/>
        <path id="Path_1182" d="M1568.167 1037.369c0-23.205-17.646-42.017-39.414-42.017h-243.44a2.115 2.115 0 0 1-2.042-2.2 2.111 2.111 0 0 1 2.042-2.156H1671.5c24.023 0 43.5 20.761 43.5 46.372s-19.474 46.372-43.5 46.372h-386.185a2.112 2.112 0 0 1-2.042-2.157 2.115 2.115 0 0 1 2.042-2.2h243.439c21.767.004 39.413-18.808 39.413-42.014z" class="cls-9" transform="translate(-185.044 -231.45)"/>
        <g id="Group_22" transform="translate(1364.242 896.614)">
            <path id="Path_1183" fill="#ff4c16" d="M1757.736 1216.878h-25.969c-5.585 0-10.113 1.732-10.113 3.869v.347h36.082z" transform="translate(-1721.654 -1216.878)"/>
            <path id="Path_1184" d="M1786.21 1226.58c0-5.358-6.783-9.7-15.149-9.7h-33.327c6.346 0 11.489 3.294 11.489 7.359l-.157 103.993 18.414-13.374 18.768 13.374z" class="cls-11" transform="translate(-1727.977 -1216.878)"/>
        </g>
        <g id="Group_23" transform="translate(1036.675 1016.428)">
            <path id="Path_1185" d="M1922.876 1414.326h-701.592a39.449 39.449 0 0 0-39.449 39.448v33.182a39.448 39.448 0 0 0 39.449 39.448h701.592l-.367-.382a80.335 80.335 0 0 1 .367-111.696z" class="cls-12" transform="translate(-1181.835 -1414.326)"/>
            <path id="Path_1186" d="M2113.989 1441.667H1738.93a39.448 39.448 0 0 0-39.449 39.448 39.448 39.448 0 0 0 39.449 39.448h375.052a80.451 80.451 0 0 1 .007-78.896z" class="cls-7" transform="translate(-1385.368 -1425.076)"/>
        </g>
        <g id="Group_24" transform="translate(1538.881 1072.672)">
            <path id="Path_1187" d="M2051.713 1507.014H2021.3a11.844 11.844 0 0 0-11.844 11.843v1.06h42.26z" class="cls-13" transform="translate(-2009.453 -1507.014)"/>
            <path id="Path_1188" d="M2031.022 1507.072c7.269 0 18.127 6.149 24.25 13.743l72.143 89.472 42.375-.025-68.612-85.093c-8.074-10.012-22.388-18.125-31.974-18.119z" class="cls-8" transform="translate(-2017.934 -1507.028)"/>
        </g>
        <g id="Group_26" transform="translate(900.642 859.931)">
            <path id="Path_1189" d="M974.11 1579.623l14.784-3.452a101.807 101.807 0 0 0 23.18-1.513 36.63 36.63 0 0 1 1.611 9.109c.084 1.059-1.436 6.329-2.486 6.491-3.8.585-10.5-.078-22.383.2 0 0-18.706 2.21-28.716-1.093s14.01-9.742 14.01-9.742z" class="cls-12" transform="translate(-957.659 -1320.87)"/>
            <path id="Path_1190" d="M1211.966 1173.2c.822 8.582 8.025 11.607 14.738 17.037 4.507 3.644 3.732 13.492.287 19.608-8.726 15.49-1.292 17.4 5.741 28.778 16.94 27.4-35.552 33.455-41.782 35.5s-10.454 4.513-14.138 4.1c-11.107-1.229-21.268-17.016-26.906-31.616s8.05-15.372 8.75-23.757-15.32-10.188-10.57-26.027c5.139-17.135 12.391-31.659 22.024-36.867 15.94-8.618 35.316.395 39.721 7.319a13.33 13.33 0 0 1 2.135 5.925z" class="cls-5" transform="translate(-1032.185 -1156.426)"/>
            <path id="Path_1191" d="M1191.63 1475.277c1.379 3.435 8.975 15.589 8.975 15.589l-106.6 1.059-1.662-21.868c29.267-.237 58.2-13.178 85.163-22.436.685 1.652 13.455 25.991 14.124 27.656z" class="cls-7" transform="translate(-1010.615 -1270.921)"/>
            <path id="Path_1192" d="M1130.875 1325.131s5.723-40.406 14.929-44.6 59.066 1.619 66.528 6.176-4.967 52.011-6.875 65.287q-.171 1.192-.367 2.378a111.22 111.22 0 0 0 5.431 56.9c-27.281 8.284-34.359 12.839-63.616 12.024l-10.922-63.909s-8.683-30.93-5.108-34.256z" class="cls-4" transform="translate(-1025.426 -1204.653)"/>
            <path id="Path_1193" d="M1208.952 1235.465s2.293 22.246 4.257 27.7-5.264 16.557-17.056 19.629-3.213-11.853-3.49-17.622-1.419-33.07-1.419-33.07z" class="cls-14" transform="translate(-1048.977 -1186.182)"/>
            <path id="Path_1194" d="M1210.1 1238.021a21.956 21.956 0 0 1-5.391 4.447c-4.454 2.626-8.536 3.2-12.056 2.394-.291-6.877-.537-12.756-.537-12.756l17.708 3.36s.095.974.276 2.555z" class="cls-11" transform="translate(-1049.843 -1186.182)"/>
            <path id="Path_1195" d="M1200.133 1170.466a20.23 20.23 0 0 1 11.056 8.63c4.095 6.791 6.366 26.431-8.234 35.036s-25.235-4.693-24.967-17.278 3.558-29.277 22.145-26.388z" class="cls-14" transform="translate(-1044.288 -1161.817)"/>
            <path id="Path_1196" d="M1170.682 1201.526c.16 3.27 1.83 5.84 3.729 5.742s3.31-2.826 3.149-6.095-1.829-5.84-3.729-5.741-3.309 2.825-3.149 6.094z" class="cls-14" transform="translate(-1041.412 -1171.762)"/>
            <path id="Path_1197" d="M1231.708 1210.742c-1.152 3.233-.321 6.487 1.857 7.268s4.877-1.207 6.03-4.439.32-6.487-1.858-7.268-4.876 1.207-6.029 4.439z" class="cls-14" transform="translate(-1065.208 -1175.97)"/>
            <path id="Path_1198" d="M1256.171 1291.644s-8.5 4.46-13.714 16.9 12.541 75.94 16.327 80.008 14.259 4.7 16.046-5.24-4.23-88.528-18.659-91.668z" class="cls-3" transform="translate(-1069.265 -1209.592)"/>
            <path id="Path_1199" d="M1142.667 1277.256l14.658 88.029-57.06 9.2-18.113-82.346s46.948-19.006 60.515-14.883z" class="cls-15" transform="translate(-1006.608 -1203.705)"/>
            <path id="Path_1200" d="M1000.389 1280.724a30.724 30.724 0 0 1 17.148-1.567c10.679 2.088 27.654 6.415 34.467 13.736 10.282 11.049 19.8 84.142 19.8 84.142l-44.355-9.944-27.056-86.367z" class="cls-15" transform="translate(-974.46 -1204.458)"/>
            <path id="Path_1201" d="M1177.768 1471.536c-7.458-20.717-91.979-96.124-114.353-90.323l12.016 45.99s25.112 74.865 49.718 84.521 47.647-1.243 47.647-1.243 12.429-18.23 4.972-38.945z" class="cls-16" transform="translate(-999.241 -1244.685)"/>
            <path id="Path_1202" d="M1201.778 1330.654c-1.052 2.1 5.668 5.861 7.621 7.283s10.055-.042 10.055-.042-16.505-9.584-17.676-7.241z" class="cls-14" transform="translate(-1053.6 -1224.785)"/>
            <path id="Path_1203" d="M1052.5 1487.27s-21.478 44.632-21.55 49.278c-.1 6.7-31.053 4.858-24.33 1.995 1.546-.659 6.416-3.125 6.79-3.448 2-1.722 19.825-57.147 19.825-57.147z" class="cls-17" transform="translate(-976.535 -1282.845)"/>
            <path id="Path_1204" d="M1065.146 1404.11c-1.037-1.144-11.923-5.468-20.3 4.972s-24.445 91.7-24.445 91.7l19.749 1.933s49.158-71.953 24.996-98.605z" class="cls-16" transform="translate(-982.328 -1253.081)"/>
            <path id="Path_1205" d="M988.54 1297.6l25.407 74.076a8.216 8.216 0 0 0 6.573 5.533c23.82 3.37 36.248 5.082 36.248 5.082s4.648.242 9.575.306l54.528-5.82a8.389 8.389 0 0 0 7.169-9.953l-13.273-72.732a8.175 8.175 0 0 0-9.311-6.758l-52.456 8.821-13.788-.372-41.271-9.241c-6.241-1.397-11.541 4.837-9.401 11.058z" class="cls-11" transform="translate(-969.612 -1207.509)"/>
            <path id="Path_1206" d="M1168.562 1353.144s14.633 2.712 19.632 2.562a52.369 52.369 0 0 1 11.48 1.428s16.334 38.41 18.678 42.695c7 12.791 26.392 11.283 26.072.615-.255-8.475-33.388-61.627-42.195-61.362s-36.383-5.485-37.21-1.981c-.445 1.884 25.394 2.766 21.318 4.366-2.532.994-22.756-1.278-22.683 1.1s18.269 2.606 20.23 4.453-19.368-2.261-19.246 1.779c.061 2.035 18.787.566 20.838 3.653.853 1.286-18.464-3.311-16.914.692z" class="cls-14" transform="translate(-1038.653 -1227.019)"/>
            <g id="Group_25" transform="translate(28.072 119.688)">
                <path id="Path_1207" d="M1007.2 1353.835a2.013 2.013 0 0 0-2.765 1.368 4.092 4.092 0 0 0 .575 3.743c1.836 1.972 14.636 3.862 14.7 1.959.057-1.464-8.533-5.349-12.51-7.07z" class="cls-14" transform="translate(-1004.047 -1353.667)"/>
                <path id="Path_1208" d="M1004.609 1362.038s-1.284 4.8-.173 4.839 14.962 1.411 15.577-.234-13.622-5.574-15.404-4.605z" class="cls-14" transform="translate(-1003.944 -1356.899)"/>
                <path id="Path_1209" d="M1003.985 1369.842a4.385 4.385 0 0 0 .754 3.364c1.147 1.233 14.045.426 14.515-1.623s-14.815-3.313-15.269-1.741z" class="cls-14" transform="translate(-1003.919 -1359.75)"/>
                <path id="Path_1210" d="M1007.27 1376.727a4.151 4.151 0 0 0 .631 2.326c.651.7 10.178-.27 11.125-2.3s-10.647-2.132-11.756-.026z" class="cls-14" transform="translate(-1005.237 -1362.129)"/>
            </g>
            <path id="Path_1211" d="M1036.569 1558.214s-4.548 16.459-9.117 27.344c-2.99 7.124-3.76 14.229-5.739 17.786-5.005 8.992-13.189 9.352-19.688 3.951s2.218-28.189 2.218-28.189l20.519-28.868z" class="cls-14" transform="translate(-974.156 -1311.269)"/>
            <path id="Path_1212" d="M1020.494 1622.05c1.759-3.16 2.57-9.12 4.824-15.406-3.138 1.822-8.4 3.194-11.267 2.429-10.5-2.805-11.027-11.26-11.027-11.26s-10.943 23.356-4.444 28.757 16.909 4.472 21.914-4.52z" class="cls-11" transform="translate(-972.938 -1329.974)"/>
            <path id="Path_1213" d="M1086.154 1302.274l16.8 86.957-10.111-.608-2.926-.21-17.551-86.508z" class="cls-12" transform="translate(-1002.76 -1213.627)"/>
            <path id="Path_1214" d="M1126.395 1509.808c5.753 10.584 17.218 12.228 27.538 11.362 11.416-.959 23.983-7.2 27.356-20.307 3.6-13.995-1.138-31.317-9.449-42.3-42.537-56.206-42.868-61.747-59.8-69.213-18.282-8.062-86.179 107.93-86.179 107.93l18.645 9.53s27.967-23.376 45.835-43.872c2.1-2.41 8.079-14.878 8.079-14.878s24.173 54.752 27.975 61.748z" class="cls-7" transform="translate(-984.475 -1247.852)"/>
        </g>
        <g id="Group_29" transform="translate(1025.899 783.59)">
            <path id="Path_1215" d="M1181.368 1030.86c-17.979 2.718-23.614 26.194-8.837 36.92a13.687 13.687 0 0 1 5.219 7.989l2.572 10.988a5.966 5.966 0 0 0 6.7 4.539l6.81-1.03a5.965 5.965 0 0 0 5.059-6.316c-.8-11.32-1.909-15.437 1.833-20.432 10.944-14.618-1.374-35.377-19.356-32.658z" class="cls-16" transform="translate(-1164.077 -1030.618)"/>
            <g id="Group_27" transform="translate(9.79 19.009)">
                <path id="Path_1216" d="M1191.638 1095.03h-.018a1.654 1.654 0 0 1-1.868-1.41l-3.351-23.959-5.612-4.808a1.655 1.655 0 1 1 2.153-2.513l6.562 5.622 3.524 25.2a1.656 1.656 0 0 1-1.39 1.868z" class="cls-7" transform="translate(-1180.211 -1061.944)"/>
            </g>
            <g id="Group_28" transform="translate(23.591 17.287)">
                <path id="Path_1217" d="M1208.917 1093.675h.018a1.655 1.655 0 0 0 1.368-1.9l-3.882-23.879 3.94-6.251a1.655 1.655 0 0 0-2.8-1.765l-4.607 7.312 4.083 25.114a1.654 1.654 0 0 0 1.88 1.369z" class="cls-7" transform="translate(-1202.954 -1059.106)"/>
            </g>
            <path id="Path_1218" d="M1186.484 1102.577c.024.09.055.18.076.271l2.572 10.988a5.966 5.966 0 0 0 6.7 4.539l6.81-1.03a5.964 5.964 0 0 0 5.059-6.316c-.354-5.036-.769-8.644-.794-11.54z" class="cls-2" transform="translate(-1172.887 -1057.698)"/>
        </g>
        <path id="Path_1219" d="M1173.141 716.4l-7.123-10.3-12.525.028a1.721 1.721 0 0 1-1.372-2.765l7.6-9.958-3.9-11.9a1.721 1.721 0 0 1 2.206-2.16l11.818 4.147 10.116-7.384a1.721 1.721 0 0 1 2.735 1.43l-.292 12.521 10.149 7.339a1.721 1.721 0 0 1-.515 3.044l-12 3.591-3.844 11.92a1.721 1.721 0 0 1-3.053.447z" class="cls-11" transform="translate(-133.337 -107.505)"/>
        <path id="Path_1220" d="M2263.845 754.151l-5.233-7.568-9.2.021a1.264 1.264 0 0 1-1.008-2.031l5.58-7.315-2.862-8.744a1.264 1.264 0 0 1 1.62-1.586l8.681 3.046 7.431-5.425a1.265 1.265 0 0 1 2.01 1.051l-.216 9.2 7.457 5.391a1.265 1.265 0 0 1-.379 2.236l-8.814 2.638-2.823 8.756a1.264 1.264 0 0 1-2.244.33z" class="cls-15" transform="translate(-564.421 -126.589)"/>
        <path id="Path_1221" d="M1987.349 581.517l-11.568-1.945-6.781 9.858-12.813-3.1-3.981 12.726-14.645-2.865-5.111 11.266-14.536-.457.172-5.5 10.872.338 5.392-11.888 14.077 2.753 4.048-12.939 14.139 3.419 6.619-9.626 10.721 1.8 3.024-7.231 5.081 2.125z" class="cls-17" transform="translate(-434.579 -65.183)"/>
        <path id="Path_1222" d="M1466.833 637.975l-8.471 2.6-5.689-13.168-12.854 2.273-5.868-9.158-4.636 2.971 7.848 12.249 12.182-2.155 5.918 13.7 12.747-3.912z" class="cls-4" transform="translate(-242.467 -85.782)"/>
        <path id="Path_1223" d="M1071.876 879.17l-12.679 7.714 13.151 59.079a7.635 7.635 0 0 0 11.421 4.864 7.636 7.636 0 0 0 3.469-8.246l-3.214-13.87 13.3-8.094 11 9.206a7.636 7.636 0 0 0 8.868.668l.241-.147a7.635 7.635 0 0 0 .923-12.385zm8.576 35.6l-2.43-10.854 8.537 7.137z" class="cls-17" transform="translate(-96.94 -187.48)"/>
        <path id="Path_1224" d="M2337.087 947.319c.652-1.672.426-7.666 8.753-13.427 3.423-2.343 6.23-4.337 6.989-7.072 1.31-4.719-3.656-6.984-8.6-6.961a4.734 4.734 0 0 1-4.732-4.6 4.758 4.758 0 0 1 4.532-4.9 30.853 30.853 0 0 1 9.685 1.11c10.62 2.947 13.818 10.16 11.964 16.838-1.7 6.114-6.6 9.087-10.591 11.617-6.725 4.272-6.722 9.032-7.3 10.366zm-5.173 10.52a7.237 7.237 0 0 1 9.192-5.333c4.344 1.206 6.311 5.045 5.207 9.331a7.473 7.473 0 1 1-14.4-4z" class="cls-16" transform="translate(-597.233 -199.73)"/>
        <g id="Group_32" transform="translate(1366.592 440.305)">
            <path id="Path_1225" d="M1744.067 464.9c-16.537 0-24.8 20.346-12.967 32a12.449 12.449 0 0 1 3.608 7.894l.818 10.231a5.426 5.426 0 0 0 5.409 4.992h6.264a5.424 5.424 0 0 0 5.407-4.992c.824-10.288.383-14.141 4.427-18.125 11.829-11.656 3.574-32-12.966-32z" class="cls-16" transform="translate(-1725.527 -464.897)"/>
            <g id="Group_30" transform="translate(9.002 16.065)">
                <path id="Path_1226" d="M1746.381 522.47h-.016a1.506 1.506 0 0 1-1.488-1.521l.245-22-4.393-5.086a1.5 1.5 0 0 1 2.278-1.968l5.137 5.948-.257 23.14a1.5 1.5 0 0 1-1.506 1.487z" class="cls-7" transform="translate(-1740.362 -491.372)"/>
            </g>
            <g id="Group_31" transform="translate(20.789 16.985)">
                <path id="Path_1227" d="M1761.548 523.985h.016a1.5 1.5 0 0 0 1.488-1.521l-.244-22 4.393-5.086a1.5 1.5 0 0 0-2.278-1.967l-5.138 5.949.257 23.14a1.5 1.5 0 0 0 1.506 1.485z" class="cls-7" transform="translate(-1759.786 -492.887)"/>
            </g>
            <path id="Path_1228" d="M1740.6 530.221c.009.085.024.169.032.255l.818 10.231a5.426 5.426 0 0 0 5.408 4.992h6.264a5.425 5.425 0 0 0 5.408-4.992c.366-4.577.484-7.878.856-10.486z" class="cls-2" transform="translate(-1731.455 -490.582)"/>
        </g>
        <path id="Path_1229" d="M1799.256 418.738l-14.293 24.237 24.237-18.022z" class="cls-7" transform="translate(-382.304 -6.443)"/>
        <path id="Path_1230" d="M1712.745 406.051l14.614 24.888-2.485-28.587z" class="cls-7" transform="translate(-353.909)"/>
        <path id="Path_1231" d="M1670.555 467.167l23.246 9.143-23.73 1.422z" class="cls-7" transform="translate(-337.13 -25.485)"/>
        <path id="Path_1232" d="M1789.06 521.151l9.322 11.808 6.836-8.079z" class="cls-7" transform="translate(-383.915 -46.711)"/>
        <path id="Path_1233" d="M1804.422 479.669l21.129-8.7.621 9.322z" class="cls-7" transform="translate(-389.955 -26.979)"/>
        <path id="Path_1234" d="M1700.388 524.224l-19.886 9.322 6.215 7.457z" class="cls-7" transform="translate(-341.231 -47.919)"/>
        <path id="Path_1235" d="M1315.009 731.617a97.127 97.127 0 0 1 15.45 3.252c7.148 2.043 11.332 3.987 14.462 7.293a11.728 11.728 0 0 1 3.326 11.926c-1.318 4.612-5.238 8.148-11.7 8.63l-.044.154c5.458 3.307 8.565 9.017 6.654 15.7a14.356 14.356 0 0 1-8.523 9.454c-4.623 1.922-11.409 1.811-21.709-1.132a94.453 94.453 0 0 1-12.463-4.393zm5.939 23.149l3.843 1.1c6.15 1.757 10.179.166 11.277-3.678 1.121-3.921-1.284-6.852-6.588-8.368a33.142 33.142 0 0 0-5.084-1.121zm-6.569 22.983a38.721 38.721 0 0 0 4.491 1.45c5.3 1.516 10.564.857 12.123-4.6 1.494-5.227-2.6-8.642-8.443-10.312l-4-1.142z" class="cls-2" transform="translate(-191.805 -129.464)"/>
        <path id="Path_1236" d="M2121.394 734.063a5.412 5.412 0 0 1-3.983 6.474 50.757 50.757 0 0 1-10.017 1.285c-20.418.689-31.364-11.664-31.931-28.489-.68-20.156 13.314-31.857 31.191-32.46a45.273 45.273 0 0 1 9.2.583 5.417 5.417 0 0 1 4.347 6.51l-.042.188a5.4 5.4 0 0 1-6.2 4.179 30.035 30.035 0 0 0-6.312-.44c-10.6.357-18.625 7.032-18.182 20.178.4 11.831 7.662 19.042 19.579 18.641a35.162 35.162 0 0 0 5.977-.755 5.412 5.412 0 0 1 6.38 4.105z" class="cls-16" transform="translate(-496.517 -109.5)"/>
        <path id="Path_1237" d="M1049.792 1186.6a8.281 8.281 0 0 1 5.192-10.383c4.412-1.457 8.433.707 10.11 5.1 1.593 4.424-.189 8.816-4.784 10.472-4.664 1.684-8.983-.626-10.518-5.189zm-1.442-12.8l-13.749-32.844a5.149 5.149 0 0 1 3-6.832l3.348-1.206a5.149 5.149 0 0 1 6.668 3.336l10.429 34.052z" class="cls-9" transform="translate(-87.112 -287.13)"/>
        <g id="Group_34" transform="translate(1489.7 772.968)">
            <g id="Group_33">
                <path id="Path_1238" d="M2088.1 1138.3s35.437 15.442 38.565 16.127c1.959.43 24.483-22.913 36.761-32.03.57-.423 2.75-3.528 3.362-3.835 7.306-3.67-5.046 17.472-5.046 17.472s-26.128 33.225-32.039 36.073c-7.424 3.575-44.115-14.565-43.894-15.612z" class="cls-17" transform="translate(-1990.295 -1054.408)"/>
                <path id="Path_1239" d="M2020.591 1063.84c1.526-10.441 8.774-32.672 2.088-41.56-9.4-12.5-29.27-11.958-38.657.052-4.3 5.5-6.63 12.254-8.9 18.863a94.4 94.4 0 0 1-5.009 12.576c-1.845 3.592-3.957 8.083-7.467 10.269-15.6 9.716-33.074 15.976-34.2 37.867-1.334 25.961 27.106 58.44 62.027 42.719 13.369-6.018 30.881-25.482 36.6-38.946 2.577-6.07 1.344-5.433-.079-14.682-1.272-8.283-7.63-18.748-6.403-27.158z" class="cls-5" transform="translate(-1928.404 -1013.114)"/>
                <path id="Path_1240" d="M2042.542 1122.292l47.44 26.1-11.187 16.987s-35.719-13.613-42.941-15.561-1.533-28.237 6.688-27.526z" class="cls-8" transform="translate(-1969.352 -1056.036)"/>
                <path id="Path_1241" d="M2045.974 1083.814s-1.234 18.067-2.155 23.132c-.952 5.233-1.531 27.023 9.354 29.684s6.8-26.845 6.977-32.135 1.244-22.477 1.244-22.477z" class="cls-14" transform="translate(-1973.598 -1040.206)"/>
                <path id="Path_1242" d="M2047.423 1085.981a20.6 20.6 0 0 0 2.966 3.485c4.01 3.782 8.136 5.011 11.9 4.518.34-5.99.71-11.967.71-11.967l-15.419 1.8-.157 2.164z" class="cls-11" transform="translate(-1975.201 -1040.206)"/>
                <path id="Path_1243" d="M2054.609 1027.995a18.614 18.614 0 0 0-11.678 5.441c-5.062 5.226-11.121 22.308.206 32.993s22.525 1.5 24.863-9.8 3.864-27.4-13.391-28.634z" class="cls-14" transform="translate(-1970.986 -1018.965)"/>
                <path id="Path_1244" d="M2055.532 1026.918s-6.905 17.816-23.212 16.309c-7.387-.682-9.06 9.406-9.06 9.406s6.044-23.952 13.628-27.511 18.644 1.796 18.644 1.796z" class="cls-5" transform="translate(-1965.7 -1017.355)"/>
                <path id="Path_1245" d="M2036.658 1059.47c.371 3.125-1.04 5.862-3.153 6.113s-4.125-2.08-4.5-5.2 1.041-5.862 3.152-6.113 4.13 2.075 4.501 5.2z" class="cls-14" transform="translate(-1967.938 -1029.287)"/>
                <path id="Path_1246" d="M2215.013 1071.035l-40.161 82.061c-.959 1.959-.662 4.232.653 5l29.339 17.182 36.673-72.721s-15.976-23.909-21.972-32.874c-1.108-1.656-3.392-.975-4.532 1.352z" class="cls-12" transform="translate(-2025.083 -1034.997)"/>
                <path id="Path_1247" d="M2183.347 1155.559l34.946-71.4c1.139-2.328 3.423-3.01 4.532-1.351 4.869 7.282 12.228 18.294 17.515 26.207l-32.916 65.27-23.424-13.723c-1.315-.771-1.612-3.043-.653-5.003z" class="cls-7" transform="translate(-2028.424 -1040.155)"/>
                <path id="Path_1248" d="M2214.783 1114.474a8.464 8.464 0 0 1 3.118-2.495c1.7-.451 3.744-.384 4.081.707.49 1.587-4.518 3.347-4.518 3.347l-2.726 3.95s-1.271-3.225.045-5.509z" class="cls-17" transform="translate(-2040.771 -1051.883)"/>
                <path id="Path_1249" d="M2045.406 1115.066s12.366 10.215 15.916 13.764a89.321 89.321 0 0 0 9.685 7.82l-10-13.828-6.333-5.912z" class="cls-14" transform="translate(-1974.408 -1053.2)"/>
                <path id="Path_1250" d="M2195.5 1327.918c-1.919-1.6-3.672-6.155-4.372-8.154-4.157-21.508-23.806-79.682-45.208-79.682-18.646 0-76.236 45.161-103.167 71.263-7.778 7.538-7.252 1.142-2.486 2.9 2.848 1.05 22.074 33.033 25.151 33.174 9.4.43 18.1-5.867 25.948-10.248 11.967-6.679 20.287-14.3 27.24-24.68 17.613-26.294 24.215-41.769 29.521-51.831 0 0 5 20.7 7.458 25.688 5.542 11.271 22.109 39.037 28.588 49.857l25.413-.69s-11.598-5.525-14.086-7.597z" class="cls-17" transform="translate(-1971.016 -1102.355)"/>
                <path id="Path_1251" d="M2159.081 1259.8s-85.351 39.775-90.736 53.447-1.243 33.975 11.187 38.117 89.493-61.734 89.493-61.734 9.944 18.23 24.031 30.66c7.509 6.626 20.2 12.031 27.449 16.884 6.345 4.251 7.768 8.39 7.768 8.39l17.817.828s-3-1.028-8.39-8.286c-18.193-24.513-60.4-81.506-78.619-78.306z" class="cls-14" transform="translate(-1982.518 -1110.057)"/>
                <path id="Path_1252" d="M2108.849 1251.689s27.415 29.555 32.8 68.5c0 0-42.952 18.506-64.083 29.694s-44.746-.415-52.2-12.844 0-47.44 0-47.44l43.918-6.836z" class="cls-13" transform="translate(-1965.224 -1106.919)"/>
                <path id="Path_1253" d="M2270.1 1386.283c-2.184-.832-2.949 10.218-3.308 12.683a5.874 5.874 0 0 0 1.255 4.883c.906.625 36.1 1.32 42.832-.485a6.732 6.732 0 0 0 1.574-.84c4.943-4.312-17.926-15.749-22.535-14.79-4.103.851-9.997 2.294-19.818-1.451z" class="cls-8" transform="translate(-2061.423 -1159.822)"/>
                <path id="Path_1254" d="M2033.222 1122.984s-6.695-.062-13.855 15.363c-8.8 18.958 3.757 91.3 2.845 101.62 0 0 3.1 3.567 21.169 6.177a27.965 27.965 0 0 0 25.059-9.117s-4.074-27.932 2.1-54.209c3.344-14.238 5.107-28.044-8.106-40.844a98.2 98.2 0 0 0-29.212-18.99z" class="cls-9" transform="translate(-1962.933 -1056.314)"/>
                <path id="Path_1255" d="M2318.445 1387.409c-2.184-.833-4.066 9.812-3.9 12.413.174 2.8.885 4.833 1.219 5.064.906.625 36.137 1.139 42.868-.666a6.756 6.756 0 0 0 1.574-.84c4.943-4.312-20.489-15.1-25.1-14.143-4.106.851-6.835 1.917-16.661-1.828z" class="cls-9" transform="translate(-2080.225 -1160.264)"/>
                <path id="Path_1256" d="M2238.409 1065.479l-66.568 96.929c-1.533 2.233-1.171 4.953.758 5.671l45.019 16.781 53.245-76.326-26.565-44.019c-1.198-1.984-4.198-1.492-5.889.964z" class="cls-11" transform="translate(-2023.746 -1032.842)"/>
                <path id="Path_1257" d="M2169.58 1176.211c-.854-1.651-7.77 2.017-7.77 2.017s-6.152 1.068-6.588.839c-.493-.26 4.134-.646 4.134-.646s7.559-2.583 7.474-3.431c-.347-3.488-5.081.853-8.79 1.012a48.847 48.847 0 0 1-8.638-.39c-1.087-.611 1.684-1.984 1.684-1.984s3.637-1.634 3.056-2.59c-1.412-2.321-9.916 2.092-11.7 3.729-1.2 1.1-2.7 3.229-4.784 4.409-9.083 5.138-19.968 13.954-32.815 20.14-4.256-3.574-45.3-40.418-46.335-41.313l-22.421 17.658c.03.022 64.317 48.984 67.89 48.868 4.49-.147 31.261-28.4 38.508-35.136 1.1-1.017 7.978-1.785 9.87-1.521 4.206.588 12.092-2.714 12.092-2.714 2.429-2.568-8.955.027-7.875-.642.477-.3 3.26-.579 6.029-.975 2.822-.4 5.376-2.018 5.72-2.791.672-1.508-6.342.657-6.342.657l-5.847.36 5.595-1.14s8.687-2.808 7.853-4.416z" class="cls-14" transform="translate(-1970.741 -1070.083)"/>
                <path id="Path_1258" d="M2045.754 1136.444c-7.249-7.418-21.186-6.339-25.253 4.249-1.13 2.945-1.082 11.394.208 14.5 5.156 12.43 35.217 32.732 35.217 32.732l16.573-22.581z" class="cls-6" transform="translate(-1964.298 -1059.728)"/>
            </g>
        </g>
        <g id="Group_38" transform="translate(1224.693 520.315)">
            <path id="Path_1259" d="M1564.673 773.358c0-.952 1.172-7.093 1.172-7.093s-2.732-8.708-3.011-8.728c-5.624-.4-9.867 3.419-8.916 8.559l.053.17a26.147 26.147 0 0 0 20.333 17.916c2.186.392 4.5.8 6.868 1.218a38.656 38.656 0 0 1-1.764-11.462c-8.219-.066-14.735-.228-14.735-.58z" class="cls-14" transform="translate(-1516.1 -659.959)"/>
            <path id="Path_1260" d="M1672.711 720.307c-.155-.466-49.442 31.592-49.442 31.592s-21.036.207-36.577.073a49.744 49.744 0 0 0 1.954 13.732c15.355 2.908 32.852 5.975 36.833 5.669 7.416-.571 44.608-19.128 44.608-19.128s2.74-31.591 2.624-31.938z" class="cls-8" transform="translate(-1529.039 -645.33)"/>
            <path id="Path_1261" d="M1721.8 836.995c-.1-.8-10.515-36.517-11.6-68.5-.842-24.8 6.835-47.037 10.772-51.1 1.453-1.518 14.985-4.765 14.985-4.765l-4.927 8.177c-5.008 9.453-6.366 17.823-8.539 28.49-6.3 30.932 22.016 92.823 20.578 93.222-1.606.445-20.869-2.357-21.269-5.524z" class="cls-9" transform="translate(-1577.577 -642.313)"/>
            <path id="Path_1262" d="M1545.749 711.855l-8.649 5.645 25.865 43.529 8.126-35.346z" class="cls-15" transform="translate(-1509.54 -642.009)"/>
            <path id="Path_1263" d="M1560.166 700.574l10.87 36.13 8.71-15.608z" class="cls-15" transform="translate(-1518.61 -637.573)"/>
            <path id="Path_1264" d="M1643.978 693.7l8.361 30.337-61.613-5.593z" class="cls-15" transform="translate(-1530.625 -634.871)"/>
            <path id="Path_1265" d="M1587.172 900.733s-26.184 31.989-26.256 36.636c-.1 6.694-31.054 4.857-24.331 1.994 1.547-.659 6.417-3.126 6.791-3.447 2-1.722 22.628-42.1 22.628-42.1z" class="cls-14" transform="translate(-1508.962 -713.552)"/>
            <path id="Path_1266" d="M1505.669 969.9l19.906-6.193s6.87 3.5 18.058 1.228a26.609 26.609 0 0 1 3.406 10.827c.084 1.059.606 4.2-.444 4.359-3.8.585-14.34.337-26.222.61 0 0-16.008.187-26.019-3.117s11.315-7.714 11.315-7.714z" class="cls-18" transform="translate(-1491.683 -741.033)"/>
            <path id="Path_1267" d="M1717.283 880.97a142.268 142.268 0 0 1-45.575-21.131c-25.476-18.222-54.139-37.176-65.463-35.631-9.115 1.243-62.148 74.163-62.148 74.163l25.688 11.187 46.4-47.647s47.4 48.869 62.977 52.2c35.475 7.602 46.808-18.554 38.121-33.141z" class="cls-12" transform="translate(-1512.292 -686.15)"/>
            <path id="Path_1268" d="M1535.021 720.025l35.724 75.683a1.242 1.242 0 0 0 .844.68l23.86 6.635-30.491-74.976-28.409-9.728a1.243 1.243 0 0 0-1.528 1.706z" class="cls-16" transform="translate(-1508.674 -644.522)"/>
            <path id="Path_1269" d="M1724.628 600.751s6.6-9 13.968 0a6.14 6.14 0 0 1 8.3 1.052s8.2-3.648 11.89 8.843c0 0 4.284-1.385 5.526 3.758a13.011 13.011 0 0 1-.969 8.958s2.7 1.536 2.188 6.475a5.981 5.981 0 0 1-3.731 5.248s-.039 6.989-2.758 9.437-6.9 1.969-6.9 1.969-.6 3.863-4.125 3.973-8.246-2.657-11.949-.673-14.006 1.691-14.006 1.691-11.986-3.613-10.06-15.637c0 0-6.645-4.627-2.246-11.747 0 0-5.091-9.62 1.689-16.537s13.183-6.81 13.183-6.81z" class="cls-18" transform="translate(-1576.703 -596.75)"/>
            <path id="Path_1270" d="M1664.66 1072.8s1.45 39.361 2.349 46.026c.895 6.635-16.7 26.625-14.455 19.672.517-1.6 1.85-6.893 1.852-7.387.012-2.639-6.526-47.539-6.526-47.539z" class="cls-14" transform="translate(-1553.098 -783.928)"/>
            <path id="Path_1271" d="M1641.24 1180.654l8.383-19.087s7.147-2.891 12.773-12.825a26.609 26.609 0 0 1 10.405 4.531c.854.631 3.567 2.3 3 3.195-2.054 3.254-9.153 11.045-16.74 20.191 0 0-10.361 12.2-19.42 17.594s1.599-13.599 1.599-13.599z" class="cls-18" transform="translate(-1548.424 -813.788)"/>
            <path id="Path_1272" d="M1639.791 1032.2c1.837-1.869-18.625-102.562-8.7-112.281s76.235-24.03 76.235-24.03l8.7-30.66s27.726 8.129 38.947 24.86c6.137 9.15-.137 30.013-1.243 32.317-9.471 19.721-32.87 20.717-49.892 20.542-15.661-.161-43.469-.378-43.469-.378l-.068 89.01a54.018 54.018 0 0 1-12.222 1.45c-7.369-.281-8.288-.83-8.288-.83z" class="cls-11" transform="translate(-1545.423 -702.315)"/>
            <path id="Path_1273" fill="#fff" d="M1740.685 712l17.958-6.453a6.98 6.98 0 0 0 .706.008c1.927-.244 23.117 69.089 30.031 95.317s-2.142 21.253-2.142 21.253-15.842 9.872-34.273 10.567c-19.165.723-15.33-22.373-15.33-22.373s-10.09-48.222-8.907-64.634S1740.685 712 1740.685 712z" transform="translate(-1584.849 -639.527)"/>
            <path id="Path_1274" d="M1748.813 681.266l-.07 8.838-.012 1.569s-1.221 15.132 3.114 17.47 14.629-20.227 14.629-20.227l-4.661-25.67z" class="cls-14" transform="translate(-1592.689 -622.896)"/>
            <path id="Path_1275" d="M1763.433 671.592c-2.162 9.259-9.292 15.686-14.576 18.5l.07-8.822 13-18.022z" class="cls-11" transform="translate(-1592.801 -622.896)"/>
            <path id="Path_1276" d="M1738.853 620.091a13.783 13.783 0 0 0-16.513 13.165 104.106 104.106 0 0 0 .555 13.267c1.3 11.978 8.958 22.823 14.385 22.136s19.444-10.325 17.835-27.359c-.994-10.517-7.428-19.369-16.262-21.209z" class="cls-14" transform="translate(-1582.366 -605.814)"/>
            <path id="Path_1277" d="M1770.028 654.845c.334 2.637 2.352 4.552 4.508 4.279s3.632-2.632 3.3-5.268-2.353-4.552-4.508-4.278-3.634 2.631-3.3 5.267z" class="cls-14" transform="translate(-1601.107 -617.511)"/>
            <path id="Path_1278" d="M1706.574 612.179c-5.042 5.151-6.151 12.146-2.477 15.626s10.741 2.123 15.782-3.028 6.151-12.146 2.477-15.626-10.74-2.123-15.782 3.028z" class="cls-18" transform="translate(-1574.349 -600.868)"/>
            <path id="Path_1279" d="M1734.483 615.6c.244 1.93 2.773 3.2 5.647 2.834s5.006-2.224 4.761-4.154-2.772-3.2-5.647-2.834-5.006 2.222-4.761 4.154z" class="cls-18" transform="translate(-1587.142 -602.503)"/>
            <path id="Path_1280" d="M1712.054 642.737a4.478 4.478 0 1 0 3.873-5.055 4.5 4.5 0 0 0-3.873 5.055z" class="cls-18" transform="translate(-1578.316 -612.83)"/>
            <path id="Path_1281" d="M1774.325 704.657s17.577-2.853 23.484-.339c3.757 1.6 8.538 33.469 8.538 33.469s.193 32.235 2.39 41.324c7.449 30.813 17.85 57.8 16.683 59.318-7.643 6.285-39.623 12.109-42.053 9.115-26.834-33.063-9.042-142.887-9.042-142.887z" class="cls-9" transform="translate(-1600.541 -638.638)"/>
            <path id="Path_1282" d="M1771.4 751.077s-17.6 54.407-25.3 60.111-42.335-47.681-42.335-47.681-15.33-8.7-16.42-8.792c-4.348-.362 9.066-2.6 9.066-2.6l1.657-13.88s.656.1 4.661 4.609c5.415 6.1 10.117 15.55 12.326 17.143l23.2 17.609 11.808-37.7z" class="cls-14" transform="translate(-1568.273 -652.38)"/>
            <path id="Path_1283" d="M1584.435 733.936l7.287-.71 31.229 77.717-8.027-2.034z" class="cls-7" transform="translate(-1528.152 -650.411)"/>
            <path id="Path_1284" d="M1658.607 701.9l18.794 91.5a2.485 2.485 0 0 1-2.358 2.985l-47.37 1.463-31.229-77.717 58.926-20.083a2.485 2.485 0 0 1 3.237 1.852z" class="cls-16" transform="translate(-1532.874 -637.313)"/>
            <path id="Path_1285" d="M1726.434 743.127l-6.007 13.155s29.52 48.579 38.635 45.886 26.309-55.311 29-69.813-2.9-26.517-10.358-28.381-13.258 10.773-15.537 16.159-10.567 43.917-10.567 43.917z" class="cls-6" transform="translate(-1581.623 -638.836)"/>
            <g id="Group_35" transform="translate(38.385 97.972)">
                <path id="Path_1286" d="M1556.413 765.248a20.559 20.559 0 0 1-1.462-3.13c-.355-1.186 6.912-5.309 9.788-3.43s-4.805 4.742-8.326 6.56z" class="cls-14" transform="translate(-1554.939 -758.205)"/>
            </g>
            <g id="Group_36" transform="translate(37.973 102.068)">
                <path id="Path_1287" d="M1556.45 772.655a11.664 11.664 0 0 1-2.179-3.1c-.355-1.186 9.315-6.052 12.191-4.173s-6.492 5.455-10.012 7.273z" class="cls-14" transform="translate(-1554.261 -764.955)"/>
            </g>
            <g id="Group_37" transform="translate(41.285 106.069)">
                <path id="Path_1288" d="M1561.91 778.563a11.667 11.667 0 0 1-2.179-3.1c-.355-1.186 6.912-5.31 9.788-3.43s-4.088 4.711-7.609 6.53z" class="cls-14" transform="translate(-1559.719 -771.548)"/>
            </g>
            <path id="Path_1289" d="M1697.443 746.146h-1.51a9.932 9.932 0 0 1-2.127-.229c-2.789-.609-10.412-2.121-11-.6-.725 1.864 10.979 4.04 10.979 4.04s-12.844-1.657-12.844.518 13.051 3.314 13.051 3.314-11.394-.414-11.6.828 13.983 4.765 13.983 4.765-11.5-2.486-12.638-1.037 18.024 8.443 18.024 8.443z" class="cls-14" transform="translate(-1566.096 -654.907)"/>
            <path id="Path_1290" d="M1563.217 781.389s6.284-3.545 7.941-2.44-5.386 6.422-5.386 6.422l.845 1.943s-4.504-3.485-3.4-5.925z" class="cls-14" transform="translate(-1519.741 -668.305)"/>
        </g>
    </g>
</svg>
