<svg xmlns="http://www.w3.org/2000/svg" id="exam" width="28.148" height="32" viewBox="0 0 28.148 32">
    <defs>
        <style>
            .cls-1{fill:#2c3e90}
        </style>
    </defs>
    <path id="Path_1294" d="M46.185 41.523H50.2a.511.511 0 0 0 0-1.023h-4.015a.511.511 0 1 0 0 1.023z" class="cls-1" transform="translate(-36.956 -31.368)"/>
    <path id="Path_1295" d="M29.669 55h-2.484a.511.511 0 0 0-.511.511V58a.511.511 0 0 0 .511.511h2.484a.511.511 0 0 0 .512-.511v-2.489a.511.511 0 0 0-.512-.511zm-.511 2.484H27.7v-1.461h1.461z" class="cls-1" transform="translate(-23.508 -41.63)"/>
    <path id="Path_1296" d="M46.185 60.275h7.6a.511.511 0 1 0 0-1.023h-7.6a.511.511 0 0 0 0 1.023z" class="cls-1" transform="translate(-36.956 -44.64)"/>
    <path id="Path_1297" d="M29.669 73.754h-2.484a.511.511 0 0 0-.511.511v2.483a.511.511 0 0 0 .511.511h2.484a.511.511 0 0 0 .511-.511v-2.484a.511.511 0 0 0-.511-.51zm-.511 2.484H27.7v-1.461h1.461z" class="cls-1" transform="translate(-23.508 -54.904)"/>
    <path id="Path_1298" d="M46.185 79.023H50.2a.511.511 0 0 0 0-1.023h-4.015a.511.511 0 1 0 0 1.023z" class="cls-1" transform="translate(-36.956 -57.909)"/>
    <path id="Path_1299" d="M29.669 92.506h-2.484a.511.511 0 0 0-.511.511V95.5a.511.511 0 0 0 .511.511h2.484a.511.511 0 0 0 .511-.511v-2.483a.511.511 0 0 0-.511-.511zm-.511 2.484H27.7v-1.461h1.461z" class="cls-1" transform="translate(-23.508 -68.175)"/>
    <path id="Path_1300" d="M43.849 16.671a2.548 2.548 0 0 0-4.7-.283l-1.1 2.265-1.214 2.5v-7.081a.511.511 0 0 0-.15-.361L32.373 9.4a.511.511 0 0 0-.361-.15h-15.66a.511.511 0 0 0-.511.511v30.978a.511.511 0 0 0 .511.511h19.97a.511.511 0 0 0 .511-.511V32.8l6.9-14.178a2.53 2.53 0 0 0 .119-1.947zm-7.923 15.653l-2.67 2-.072-3.338 5.56-11.429 2.743 1.343zM32.523 11l2.565 2.564h-2.565zM16.864 40.227V10.273H31.5v3.8a.511.511 0 0 0 .511.511h3.8v8.667l-3.6 7.4a.51.51 0 0 0-.052.234l.085 3.935h-7.173a.511.511 0 1 0 0 1.023h7.6l.051-.005c.015 0 .029.005.045.005a.509.509 0 0 0 .307-.1l2.738-2.054v6.54zM42.812 18.17l-.878 1.805-2.744-1.335.877-1.805a1.525 1.525 0 1 1 2.743 1.335z" class="cls-1" transform="translate(-15.841 -9.25)"/>
    <path id="Path_1301" d="M30.948 38.789a.512.512 0 0 0-.717.1l-.994 1.307-.472-.472a.512.512 0 1 0-.726.722l.886.886a.511.511 0 0 0 .361.15h.034a.513.513 0 0 0 .373-.2l1.352-1.771a.512.512 0 0 0-.1-.718z" class="cls-1" transform="translate(-24.369 -30.083)"/>
</svg>
