<svg xmlns="http://www.w3.org/2000/svg" id="online-course" width="32" height="32" viewBox="0 0 32 32">
    <defs>
        <style>
            .cls-1{fill:#2c3e90}
        </style>
    </defs>
    <g id="Group_672">
        <g id="Group_671">
            <path id="Path_1730" d="M34.665 300.8a.533.533 0 0 0 .533-.533V299.2a.533.533 0 1 0-1.067 0v1.067a.533.533 0 0 0 .534.533z" class="cls-1" transform="translate(-31.999 -279.999)"/>
            <path id="Path_1731" d="M30.4 7.467h-7.11a7.471 7.471 0 0 0-2.75-4.315l.639-.643a.533.533 0 1 0-.756-.752l-.788.793a7.407 7.407 0 0 0-3.1-.923v-.56h.533a.533.533 0 1 0 0-1.067h-2.135a.533.533 0 0 0 0 1.067h.533v.56a7.408 7.408 0 0 0-3.1.925l-.783-.793a.533.533 0 0 0-.759.749l.638.646A7.471 7.471 0 0 0 8.71 7.467H1.6a1.6 1.6 0 0 0-1.6 1.6V30.4A1.6 1.6 0 0 0 1.6 32h28.8a1.6 1.6 0 0 0 1.6-1.6V9.067a1.6 1.6 0 0 0-1.6-1.6zM10.667 8.533h-1.04a6.4 6.4 0 0 1 5.84-5.84v1.04a.533.533 0 1 0 1.067 0V2.694a6.4 6.4 0 0 1 5.84 5.84h-1.04a.533.533 0 0 0 0 1.067h1.04a6.4 6.4 0 0 1-5.84 5.84V14.4a.533.533 0 1 0-1.067 0v1.04a6.4 6.4 0 0 1-5.84-5.84h1.04a.533.533 0 0 0 0-1.067zm-6.4 22.4H1.6a.534.534 0 0 1-.533-.533V9.067a.534.534 0 0 1 .533-.534h2.667zm23.467 0H5.333v-22.4H8.56c-.013.177-.027.353-.027.533a7.467 7.467 0 1 0 14.933 0c0-.18-.014-.356-.027-.533h4.294v22.4zm3.2-11.733H30.4a.533.533 0 0 0 0 1.067h.533V30.4a.534.534 0 0 1-.533.533h-1.6v-22.4h1.6a.534.534 0 0 1 .533.533z" class="cls-1"/>
            <path id="Path_1732" d="M222.192 93.24a.532.532 0 0 0 .7-.28l1.56-3.639 3.127-3.127a.533.533 0 1 0-.754-.754l-3.2 3.2a.531.531 0 0 0-.113.167l-1.6 3.733a.533.533 0 0 0 .28.7z" class="cls-1" transform="translate(-208.002 -79.95)"/>
            <path id="Path_1733" d="M108.8 294.933v-3.2a1.6 1.6 0 0 0-1.6-1.6H104a1.6 1.6 0 0 0-1.6 1.6v3.2a1.6 1.6 0 0 0 1.6 1.6h3.2a1.6 1.6 0 0 0 1.6-1.6zm-1.067 0a.534.534 0 0 1-.533.533H104a.534.534 0 0 1-.533-.533v-3.2a.534.534 0 0 1 .533-.533h3.2a.534.534 0 0 1 .533.533z" class="cls-1" transform="translate(-96 -272)"/>
            <path id="Path_1734" d="M214.933 296.533h3.2a1.6 1.6 0 0 0 1.6-1.6v-3.2a1.6 1.6 0 0 0-1.6-1.6h-3.2a1.6 1.6 0 0 0-1.6 1.6v3.2a1.6 1.6 0 0 0 1.6 1.6zm-.533-4.8a.534.534 0 0 1 .533-.533h3.2a.534.534 0 0 1 .533.533v3.2a.534.534 0 0 1-.533.533h-3.2a.534.534 0 0 1-.533-.533z" class="cls-1" transform="translate(-200 -272)"/>
            <path id="Path_1735" d="M324.267 291.733v3.2a1.6 1.6 0 0 0 1.6 1.6h3.2a1.6 1.6 0 0 0 1.6-1.6v-3.2a1.6 1.6 0 0 0-1.6-1.6h-3.2a1.6 1.6 0 0 0-1.6 1.6zm5.333 0v3.2a.534.534 0 0 1-.533.533h-3.2a.534.534 0 0 1-.533-.533v-3.2a.534.534 0 0 1 .533-.533h3.2a.534.534 0 0 1 .533.533z" class="cls-1" transform="translate(-304 -272)"/>
            <path id="Path_1736" d="M195.2 409.6h-5.333a2.133 2.133 0 1 0 0 4.267h5.333a2.133 2.133 0 0 0 0-4.267zm0 3.2h-5.333a1.067 1.067 0 1 1 0-2.133h5.333a1.067 1.067 0 0 1 0 2.133z" class="cls-1" transform="translate(-176.001 -384)"/>
        </g>
    </g>
</svg>
