<svg xmlns="http://www.w3.org/2000/svg" id="training" width="32" height="32" viewBox="0 0 32 32">
    <defs>
        <style>
            .cls-1{fill:#fff}
        </style>
    </defs>
    <g id="Group_39">
        <path id="Path_1291" d="M29.681 15.157l-1.245-.264a1.062 1.062 0 0 1-.81-.858l-.226-1.21a3.81 3.81 0 0 0 1.12-1.437h.354A2.13 2.13 0 0 0 30.935 9.2a2.246 2.246 0 0 0-.421-1.308l.189-.6a5.039 5.039 0 0 0 .232-1.513A4.657 4.657 0 0 0 26.422 1h-1.368a3.915 3.915 0 0 0-3.2 1.706l-.376.1a2.421 2.421 0 0 0-.8.381H2.032V17.4h5.017l-.774 3.28H1v1.093h32v-2.33a4.33 4.33 0 0 0-3.319-4.288zM14.532 17.4l.774 3.28H9.919l.774-3.28zm1.064 0H18a4.553 4.553 0 0 0-.485 2.044v1.237h-1.144zm2.952 2.044a3.247 3.247 0 0 1 2.489-3.216l.436-.092 1.95 4.545h-4.875zm4.8-4.085l.961.508-1.33 1.127-.47-1.1a2.036 2.036 0 0 0 .839-.54zM25.4 17.4h-.288l-.2-.646.347-.294.347.294zm-1.19.591L24 19.369l-.578-1.348.635-.538zm.967.5h.158l.344 2.187h-.846zm1.125-.5l.16-.508.635.538-.578 1.348zM28.01 15.9l-.47 1.1-1.33-1.127.961-.508a2.047 2.047 0 0 0 .839.54zm-1.4-1.65c.01.055.028.107.042.16l-1.4.741-1.4-.74c.014-.053.031-.1.042-.16l.169-.892a3.362 3.362 0 0 0 2.375 0zm1.225-4.5a2.585 2.585 0 1 1-5.161 0V7.628a1.624 1.624 0 0 1 1.165-1.589 1.549 1.549 0 0 0 1.415.975h2.065a.533.533 0 0 1 .516.547zm1.032.547h-.037a4.064 4.064 0 0 0 .041-.547V8.107a1.1 1.1 0 0 1 0 2.187zm-7.143-6.431l.756-.2.11-.175a2.916 2.916 0 0 1 2.464-1.4h1.368A3.592 3.592 0 0 1 29.9 5.78a3.894 3.894 0 0 1-.179 1.166l-.073.232a1.958 1.958 0 0 0-.78-.165h-.095a1.555 1.555 0 0 0-1.45-1.093h-2.065a.548.548 0 0 1 0-1.093h.516V3.733h-.516a1.568 1.568 0 0 0-1.491 1.2l-.167.044a2.657 2.657 0 0 0-1.881 2.038h-.074a1.951 1.951 0 0 0-.734.149 7.535 7.535 0 0 1-.3-1.789 1.538 1.538 0 0 1 1.111-1.508zm-.079 4.241v1.64a4.064 4.064 0 0 0 .041.547h-.041a1.1 1.1 0 0 1 0-2.187zM3.065 4.28h16.747a2.763 2.763 0 0 0-.231 1.093 9.617 9.617 0 0 0 .45 2.481 2.245 2.245 0 0 0-.45 1.345 2.13 2.13 0 0 0 2.065 2.187H22a3.81 3.81 0 0 0 1.12 1.437l-.229 1.211a1.062 1.062 0 0 1-.81.858l-1.245.264a4.042 4.042 0 0 0-2.058 1.151H3.065zM8.113 17.4h1.516l-.774 3.28H7.339zm23.855 3.28h-4.876l1.95-4.545.436.092a3.248 3.248 0 0 1 2.489 3.216z" class="cls-1" transform="translate(-1 -1)"/>
        <path id="Path_1292" d="M22.308 10.093h-6.56v2.187H13.56V9H7v6.56h3.28v3.28h7.654v-3.28h4.374zm-14.214 0h4.374v4.374H8.093zm8.747 7.654h-5.467V15.56h2.186v-2.186h3.28zm4.374-3.28h-3.28V12.28h-1.094v-1.093h4.374z" class="cls-1" transform="translate(-3.72 -4.626)"/>
        <path id="Path_1293" d="M29.639 47.753a3.934 3.934 0 0 0 1.3-2.926v-.547a3.2 3.2 0 0 0-3.1-3.28h-1.033a3.2 3.2 0 0 0-3.1 3.28v.547a3.934 3.934 0 0 0 1.3 2.926 4.7 4.7 0 0 0-2.847 2.477 4.734 4.734 0 0 0-2.838-2.473 3.913 3.913 0 0 0 1.293-2.93v-.547a3.2 3.2 0 0 0-3.1-3.28h-1.03a3.2 3.2 0 0 0-3.1 3.28v.547a3.913 3.913 0 0 0 1.293 2.93 4.733 4.733 0 0 0-2.84 2.477A4.739 4.739 0 0 0 9 47.753a3.913 3.913 0 0 0 1.29-2.926v-1.094A2.663 2.663 0 0 0 7.71 41H4.1a1.065 1.065 0 0 0-1.032 1.093v2.733a3.913 3.913 0 0 0 1.293 2.93A4.894 4.894 0 0 0 1 52.481v.547h32v-.547a4.874 4.874 0 0 0-3.361-4.728zm-1.285.9a1.034 1.034 0 1 1-2.065 0 1.138 1.138 0 0 1 .02-.158 3.321 3.321 0 0 0 2.024 0 1.137 1.137 0 0 1 .022.159zm-3.613-3.827v-.546a2.13 2.13 0 0 1 2.065-2.187h1.032A2.13 2.13 0 0 1 29.9 44.28v.547a2.763 2.763 0 0 1-1.485 2.473 2.478 2.478 0 0 1-2.188 0 2.761 2.761 0 0 1-1.485-2.473zm-10.323 0v-.546a2.13 2.13 0 0 1 2.065-2.187h1.032a2.13 2.13 0 0 1 2.065 2.187v.547a2.585 2.585 0 1 1-5.161 0zm1.548 3.827h2.065a3.69 3.69 0 0 1 3.572 3.28H12.4a3.69 3.69 0 0 1 3.572-3.28zM4.1 44.827v-2.734h3.61a1.6 1.6 0 0 1 1.548 1.64v1.093a2.663 2.663 0 0 1-2.581 2.734A2.663 2.663 0 0 1 4.1 44.827zm-2.031 7.107a3.693 3.693 0 0 1 3.576-3.28H7.71a3.693 3.693 0 0 1 3.576 3.28zm20.649 0a3.752 3.752 0 0 1 2.555-3.126 2.05 2.05 0 0 0 4.1 0 3.753 3.753 0 0 1 2.559 3.125z" class="cls-1" transform="translate(-1 -21.027)"/>
    </g>
</svg>
